PathFileType	4	(X/Y/Z)	 s01c0103.trc
DataRate	CameraRate	NumFrames	NumMarkers	Units	OrigDataRate	OrigDataStartFrame	OrigNumFrames
200	200	4	48	mm	200	751	2000
Frame#	Time	racr			lacr			c7			jug			rlel			rdr			llel			ldr			s2			lic			ric			lasi			rasi			rpsi			lpsi			rgt			lgt			rth1			rth2			rth3			rth4			rlfc			rsh1			rsh2			rsh3			rsh4			rlmal			rmmal			rcal			rtoe			rmt5			lth1			lth2			lth4			lth3			llfc			lsh1			lsh2			lsh3			lsh4			llmal			lmmal			lcal			ltoe			lmt5			SBIKE			LBIKE			RBIKE			
		X1	Y1	Z1	X2	Y2	Z2	X3	Y3	Z3	X4	Y4	Z4	X5	Y5	Z5	X6	Y6	Z6	X7	Y7	Z7	X8	Y8	Z8	X9	Y9	Z9	X10	Y10	Z10	X11	Y11	Z11	X12	Y12	Z12	X13	Y13	Z13	X14	Y14	Z14	X15	Y15	Z15	X16	Y16	Z16	X17	Y17	Z17	X18	Y18	Z18	X19	Y19	Z19	X20	Y20	Z20	X21	Y21	Z21	X22	Y22	Z22	X23	Y23	Z23	X24	Y24	Z24	X25	Y25	Z25	X26	Y26	Z26	X27	Y27	Z27	X28	Y28	Z28	X29	Y29	Z29	X30	Y30	Z30	X31	Y31	Z31	X32	Y32	Z32	X33	Y33	Z33	X34	Y34	Z34	X35	Y35	Z35	X36	Y36	Z36	X37	Y37	Z37	X38	Y38	Z38	X39	Y39	Z39	X40	Y40	Z40	X41	Y41	Z41	X42	Y42	Z42	X43	Y43	Z43	X44	Y44	Z44	X45	Y45	Z45	X46	Y46	Z46	X47	Y47	Z47	X48	Y48	Z48	
751	3.7550	492.646224	1331.541662	-109.361234	513.985162	1301.173645	-408.979938	460.224102	1388.846882	-254.764598	453.253559	1225.140386	-257.779646	566.424490	1067.539645	-13.618146	734.296329	862.592736	-62.743169	543.716804	1037.597685	-529.961426	720.238640	870.111921	-431.527547	NaN	NaN	NaN	102.252452	1175.238429	-436.053607	83.499786	1180.786514	-108.145971	104.509531	1124.340235	-413.190801	111.483791	1137.557655	-138.004073	-44.377526	1208.034659	-219.539521	-42.591086	1207.049532	-325.857223	43.253597	1083.478860	-72.655648	40.957725	1031.068154	-455.511982	156.410686	1023.699767	-58.390877	238.689040	1006.174020	-55.883853	324.394898	977.815934	-64.620326	253.464039	1056.026240	-78.191734	403.075208	900.973575	-86.418553	317.397855	821.253942	-60.090451	261.205561	758.079829	-67.496539	196.373199	698.072179	-80.782879	297.738679	725.694669	-102.368482	104.786806	617.340921	-102.468999	150.668453	605.092751	-179.832389	56.712473	617.275826	-159.442274	253.224554	429.911171	-136.926126	153.539134	476.595297	-71.227985	93.951801	911.983812	-458.515914	155.941036	848.259564	-455.146948	195.826277	885.528909	-451.213552	208.437609	783.225098	-434.089960	276.631500	680.690827	-418.689349	233.693878	578.366993	-454.316237	229.518052	492.256107	-447.374976	223.032373	407.452335	-434.099244	284.849584	492.423976	-419.878228	222.225209	290.217107	-406.568444	245.268208	303.929045	-332.358213	169.393622	253.529525	-375.812581	442.047779	198.911478	-371.396374	338.681534	186.416982	-442.535574	-224.334683	892.985755	-254.782416	-12.711199	84.348745	-457.224841	-22.050238	80.856192	-56.988411	
752	3.7600	491.617593	1333.152556	-110.425614	514.400463	1300.678827	-409.048629	459.985884	1389.350099	-255.600531	452.960052	1225.634144	-258.166263	565.362493	1068.820933	-14.599899	733.735337	863.808070	-63.520015	546.629708	1038.377703	-529.930032	721.516805	868.535366	-432.144574	NaN	NaN	NaN	103.604203	1175.340574	-437.012811	83.264353	1181.941688	-109.578510	104.855451	1123.834622	-414.585806	111.106752	1138.131202	-139.120330	-44.624379	1208.639682	-221.934087	-42.308544	1207.059355	-328.191596	42.766275	1085.605985	-73.819323	40.190886	1030.600481	-456.772958	156.049264	1027.274381	-59.475196	238.505549	1011.175078	-56.954501	324.682455	984.315203	-65.539942	252.398775	1061.197135	-79.607983	405.314425	909.457296	-86.597721	320.582225	828.985947	-60.422095	265.059747	765.366333	-67.764647	200.823652	704.651094	-81.166368	301.993327	733.070920	-102.356128	110.184474	622.661034	-103.437583	156.461289	611.091563	-180.463458	62.434908	621.235767	-160.359503	262.316174	438.399012	-136.613168	161.320646	482.924767	-71.575192	91.450761	910.959261	-459.980128	152.278524	846.035042	-456.908960	192.999535	882.444972	-453.077660	203.567494	779.974526	-435.897646	269.866911	676.333881	-420.417936	226.243037	574.214693	-456.066439	222.179657	488.120955	-448.397381	215.635891	403.342479	-434.803749	277.707285	488.241158	-421.289006	215.030504	286.774862	-407.169645	237.977966	299.817310	-332.420947	162.556234	250.412411	-375.822218	433.822864	191.314866	-371.570859	330.239466	180.603065	-442.688311	-224.426100	892.973737	-254.913373	-12.716156	84.364625	-457.289857	-22.056338	80.888328	-57.032121	
753	3.7650	490.421669	1334.816184	-111.479485	514.763209	1300.180796	-409.093245	459.645262	1389.876287	-256.484511	452.747673	1226.091343	-258.579838	564.155597	1069.992790	-15.493238	733.082864	865.326630	-64.326063	549.655585	1039.071985	-529.802836	723.053361	867.095739	-432.447549	NaN	NaN	NaN	104.913910	1175.516676	-438.138141	83.029149	1183.045712	-110.761336	105.084319	1123.414625	-415.971389	110.714401	1138.577821	-140.161640	-44.921290	1209.219718	-224.172106	-42.124867	1207.105751	-330.371923	42.270383	1087.715143	-75.046229	39.486336	1030.154622	-457.926532	155.493526	1030.878358	-60.714283	238.234303	1016.045474	-58.316880	324.874720	990.711019	-66.533146	251.008724	1066.231418	-81.321605	407.276317	917.730468	-86.885425	323.756389	836.321044	-60.765221	269.059487	771.937417	-68.128765	205.717941	710.433233	-81.573983	306.578120	740.102823	-102.418142	116.278200	627.170814	-104.320440	162.706352	616.354823	-181.085139	67.658298	624.606374	-161.438385	271.897197	446.256574	-136.333580	169.707772	488.870633	-71.776302	89.261326	910.095630	-461.406392	148.961517	843.972601	-458.611115	190.230187	879.800238	-454.846972	199.006859	777.113815	-437.739959	263.586022	672.598917	-421.849790	219.448797	570.579653	-457.297060	215.088776	484.476682	-449.246467	208.361844	399.819476	-435.468839	270.823922	484.498800	-422.534745	207.621305	283.846022	-407.764184	230.484208	296.172511	-332.461412	155.534397	248.083366	-375.964423	424.826592	183.768121	-371.189905	321.676563	175.586625	-442.903945	-224.480042	892.948766	-255.041824	-12.709280	84.352022	-457.333461	-22.060845	80.911654	-57.078039	
754	3.7700	489.100437	1336.442244	-112.472790	515.061628	1299.676689	-409.126666	459.212736	1390.407532	-257.424577	452.440751	1226.521732	-258.954798	562.704246	1071.073140	-16.240582	732.533500	867.119942	-65.012941	552.792958	1039.661211	-529.481571	724.591152	865.871351	-432.742408	NaN	NaN	NaN	105.904437	1175.546590	-439.191064	82.776180	1183.991019	-111.817532	105.221195	1123.115960	-417.263849	110.245262	1139.400850	-141.509518	-45.210895	1209.780123	-226.340823	-42.046895	1207.205189	-332.381659	41.647752	1089.865603	-76.087612	38.742888	1029.723894	-459.294922	155.027377	1034.639250	-61.913875	237.847613	1020.956324	-59.686728	324.950653	996.962062	-67.571961	249.884234	1071.213508	-82.883033	408.865935	925.800210	-87.283116	326.992843	843.242591	-61.191558	273.348025	777.992244	-68.580411	210.861832	715.536921	-82.074759	311.348408	746.643366	-102.612274	122.741169	630.888193	-105.235227	169.266556	620.864271	-181.725371	73.893619	627.216084	-162.520490	281.721757	453.439243	-135.958171	178.539913	494.093490	-72.357209	87.187944	909.388936	-462.805871	145.791604	842.379897	-460.285368	187.640610	877.488739	-456.518318	194.918659	774.601330	-439.587064	257.917249	669.329621	-423.188515	213.224813	567.505551	-458.356621	208.350132	481.477373	-450.083342	201.275276	396.846892	-436.118179	264.218539	481.266724	-423.611536	200.026549	281.440729	-408.348260	222.822396	293.008076	-332.482212	148.360891	246.609144	-376.293317	415.911182	177.110099	-371.338565	312.556842	170.721700	-443.070390	-224.551841	892.949174	-255.236470	-12.724263	84.289575	-457.332449	-22.075183	80.936200	-57.114951	
